<svg width="35" height="36" viewBox="0 0 35 36" fill="none" xmlns="http://www.w3.org/2000/svg">
<g id="Group 1000005995">
<g id="Group 1000005776">
<circle id="Ellipse 29" cx="17.5" cy="18.1445" r="17" fill="#EFFEF4" stroke="#0BB54A"/>
</g>
<g id="Black">
<path id="Vector" d="M25.3678 12.678C25.3114 12.7043 25.1349 12.8696 24.9772 13.0461C24.4101 13.6771 22.2092 16.1784 20.6806 17.9286C18.2131 20.7566 16.7333 22.4355 16.707 22.4355C16.677 22.4355 16.1474 21.8608 14.4198 19.9567C13.74 19.2018 13.0114 18.4131 12.8086 18.2027C12.463 17.8497 12.4217 17.8196 12.2602 17.7934C12.1138 17.7746 12.0499 17.7858 11.9034 17.8572C11.6781 17.9736 11.5842 18.1013 11.5617 18.3379C11.5279 18.691 11.4603 18.5971 13.0827 20.3998C13.9315 21.3425 14.0329 21.4702 13.9879 21.5266C13.8639 21.6843 13.1917 22.4542 13.1691 22.4655C13.1541 22.473 13.094 22.4204 13.0377 22.3528C12.8274 22.1049 9.53732 18.4656 9.24813 18.1652C9.02279 17.9248 8.91762 17.8422 8.79744 17.8121C8.32797 17.6844 7.89231 18.1239 8.02376 18.5971C8.06507 18.7511 8.20028 18.9088 9.7852 20.6703C11.6856 22.7772 12.8386 24.0166 12.9325 24.0542C13.0527 24.0992 13.2517 24.0955 13.3832 24.0467C13.5184 23.9978 13.6874 23.8363 14.1757 23.2805C14.3935 23.0326 14.6526 22.7434 14.7503 22.6383L14.9306 22.443L15.4751 23.0514C16.1887 23.8514 16.3915 24.0392 16.5643 24.073C16.8385 24.1218 16.9624 24.073 17.2065 23.8176C17.8262 23.1641 22.8965 17.3727 25.5931 14.2367C26.2316 13.493 26.2729 13.4217 26.2241 13.1287C26.2015 12.9785 26.1152 12.8433 25.9724 12.7381C25.8523 12.648 25.5067 12.6142 25.3678 12.678Z" fill="#0BB54A"/>
<path id="Vector_2" d="M21.3747 13.196C21.2395 13.2524 20.8076 13.7331 18.1073 16.8203C16.5036 18.6531 16.0115 19.224 15.8989 19.393C15.8125 19.5169 15.8163 19.8587 15.9026 20.0315C16.0416 20.3132 16.5411 20.4296 16.774 20.2305C16.958 20.0766 19.7973 16.8654 21.4611 14.9312C22.2198 14.0486 22.2874 13.9359 22.2348 13.6655C22.201 13.4815 22.0733 13.3012 21.9193 13.2261C21.7804 13.1547 21.5024 13.1397 21.3747 13.196Z" fill="#0BB54A"/>
</g>
</g>
</svg>
