<svg width="20" height="20" viewBox="0 0 20 20" fill="none" xmlns="http://www.w3.org/2000/svg">
<path d="M4.99979 6.24181C5.2208 6.24181 5.43277 6.15401 5.58905 5.99773C5.74533 5.84145 5.83312 5.62949 5.83312 5.40848V4.91681L8.23312 7.31681C8.70187 7.78498 9.33729 8.04795 9.99979 8.04795C10.6623 8.04795 11.2977 7.78498 11.7665 7.31681L15.5915 3.49181C15.7467 3.33568 15.8338 3.12447 15.8338 2.90431C15.8338 2.68416 15.7467 2.47295 15.5915 2.31681C15.514 2.2387 15.4218 2.17671 15.3203 2.1344C15.2187 2.09209 15.1098 2.07031 14.9998 2.07031C14.8898 2.07031 14.7809 2.09209 14.6793 2.1344C14.5778 2.17671 14.4856 2.2387 14.4081 2.31681L10.5915 6.13348C10.514 6.21159 10.4218 6.27358 10.3203 6.31589C10.2187 6.35819 10.1098 6.37998 9.99979 6.37998C9.88978 6.37998 9.78086 6.35819 9.67931 6.31589C9.57776 6.27358 9.48559 6.21159 9.40812 6.13348L7.00812 3.74181H7.49979C7.7208 3.74181 7.93277 3.65401 8.08905 3.49773C8.24533 3.34145 8.33312 3.12949 8.33312 2.90848C8.33312 2.68746 8.24533 2.4755 8.08905 2.31922C7.93277 2.16294 7.7208 2.07514 7.49979 2.07514H4.99979C4.83621 2.07528 4.67629 2.12355 4.53996 2.21394C4.40363 2.30434 4.29692 2.43285 4.23312 2.58348C4.19132 2.68685 4.16873 2.79699 4.16646 2.90848V5.40848C4.16646 5.62949 4.25425 5.84145 4.41053 5.99773C4.56682 6.15401 4.77878 6.24181 4.99979 6.24181ZM18.2831 12.3751C15.9101 10.5439 12.9972 9.55063 9.99979 9.55063C7.00237 9.55063 4.08944 10.5439 1.71646 12.3751C1.46657 12.5773 1.26289 12.8307 1.11915 13.1182C0.975401 13.4057 0.89492 13.7206 0.883124 14.0418C0.861362 14.3591 0.908149 14.6774 1.0203 14.9751C1.13246 15.2727 1.30736 15.5428 1.53312 15.7668L2.99979 17.2668C3.37457 17.6415 3.87037 17.8706 4.39857 17.9134C4.92678 17.9561 5.45297 17.8097 5.88312 17.5001L6.27479 17.2335C6.5413 17.0611 6.81979 16.9079 7.10812 16.7751C7.46236 16.6187 7.74475 16.3347 7.89915 15.9796C8.05355 15.6245 8.06865 15.2242 7.94146 14.8585L7.86646 14.6585C9.29334 14.2923 10.7896 14.2923 12.2165 14.6585L12.1415 14.8585C12.0143 15.2242 12.0294 15.6245 12.1838 15.9796C12.3382 16.3347 12.6206 16.6187 12.9748 16.7751C13.2631 16.9079 13.5416 17.0611 13.8081 17.2335L14.1998 17.5001C14.5718 17.7731 15.0217 17.9192 15.4831 17.9168C16.0825 17.9176 16.6578 17.6808 17.0831 17.2585L18.5915 15.7418C18.8027 15.5122 18.9631 15.2407 19.0622 14.9449C19.1613 14.649 19.1968 14.3356 19.1665 14.0251C19.1468 13.7027 19.0577 13.3883 18.9052 13.1035C18.7528 12.8188 18.5406 12.5703 18.2831 12.3751ZM17.3331 14.5751L15.8331 16.0835C15.742 16.1785 15.6205 16.2387 15.4898 16.2539C15.359 16.2691 15.227 16.2383 15.1165 16.1668C14.9581 16.0501 14.7998 15.9418 14.6248 15.8335C14.331 15.6484 14.0279 15.4787 13.7165 15.3251L14.0498 14.4168C14.1248 14.2091 14.1143 13.98 14.0206 13.78C13.9268 13.58 13.7575 13.4254 13.5498 13.3501C11.2622 12.5171 8.75408 12.5171 6.46646 13.3501C6.25876 13.4254 6.08942 13.58 5.99567 13.78C5.90191 13.98 5.8914 14.2091 5.96646 14.4168L6.29979 15.3335C5.98408 15.4808 5.67793 15.6478 5.38312 15.8335L4.89979 16.1668C4.78898 16.2463 4.65258 16.2818 4.51707 16.2664C4.38156 16.251 4.25661 16.1858 4.16646 16.0835L2.66646 14.5751C2.61241 14.522 2.56975 14.4583 2.5411 14.3881C2.51244 14.3179 2.49839 14.2426 2.49979 14.1668C2.50671 14.0812 2.53096 13.9979 2.57108 13.922C2.61119 13.8461 2.66632 13.7791 2.73312 13.7251C4.81584 12.1209 7.37087 11.251 9.99979 11.251C12.6287 11.251 15.1837 12.1209 17.2665 13.7251C17.3333 13.7791 17.3884 13.8461 17.4285 13.922C17.4686 13.9979 17.4929 14.0812 17.4998 14.1668C17.5012 14.2426 17.4871 14.3179 17.4585 14.3881C17.4298 14.4583 17.3872 14.522 17.3331 14.5751Z" fill="black"/>
</svg>
